HIERARCHY
ROOT Hips
{
	OFFSET 0.000000 71.206352 2.654994
	CHANNELS 6 Xposition Yposition Zposition Xrotation Yrotation Zrotation
	JOINT Pelvis
	{
		OFFSET 0.000000 0.000000 0.000000
		CHANNELS 3 Xrotation Yrotation Zrotation
		JOINT LeftUpLeg
		{
			OFFSET 6.797117 -2.508530 -1.318654
			CHANNELS 3 Xrotation Yrotation Zrotation
			JOINT LeftLeg
			{
				OFFSET 2.604768 -29.125713 0.690240
				CHANNELS 3 Xrotation Yrotation Zrotation
				JOINT LeftFoot
				{
					OFFSET 2.495626 -29.462662 -0.266779
					CHANNELS 3 Xrotation Yrotation Zrotation
					JOINT LeftToeBase
					{
						OFFSET 3.145477 -8.630991 16.059889
						CHANNELS 3 Xrotation Yrotation Zrotation
						End Site
						{
							OFFSET 0.000000 18.501570 0.000000
						}
					}
				}
			}
			JOINT Left_ShortSleeve
			{
				OFFSET 1.173896 -10.418373 1.153777
				CHANNELS 3 Xrotation Yrotation Zrotation
				End Site
				{
					OFFSET 0.000000 19.898849 0.000000
				}
			}
		}
		JOINT RightUpLeg
		{
			OFFSET -6.797117 -2.508530 -1.318654
			CHANNELS 3 Xrotation Yrotation Zrotation
			JOINT RightLeg
			{
				OFFSET -2.618195 -29.124561 0.688025
				CHANNELS 3 Xrotation Yrotation Zrotation
				JOINT RightFoot
				{
					OFFSET -2.482200 -29.463818 -0.264565
					CHANNELS 3 Xrotation Yrotation Zrotation
					JOINT RightToeBase
					{
						OFFSET -3.115344 -8.682778 16.113401
						CHANNELS 3 Xrotation Yrotation Zrotation
						End Site
						{
							OFFSET 0.000000 18.567112 0.000000
						}
					}
				}
			}
			JOINT Right_ShortSleeve
			{
				OFFSET -1.173896 -10.418373 1.153777
				CHANNELS 3 Xrotation Yrotation Zrotation
				End Site
				{
					OFFSET 0.000000 19.898849 0.000000
				}
			}
		}
	}
	JOINT Spine
	{
		OFFSET 0.000000 13.368111 0.470529
		CHANNELS 3 Xrotation Yrotation Zrotation
		JOINT Spine1
		{
			OFFSET 0.146996 13.837402 0.538789
			CHANNELS 3 Xrotation Yrotation Zrotation
			JOINT Spine2
			{
				OFFSET 0.167995 16.242874 -1.435485
				CHANNELS 3 Xrotation Yrotation Zrotation
				JOINT Neck
				{
					OFFSET 0.217193 18.631516 -1.679142
					CHANNELS 3 Xrotation Yrotation Zrotation
					JOINT Head
					{
						OFFSET 0.000000 6.599380 1.385859
						CHANNELS 3 Xrotation Yrotation Zrotation
						JOINT Hat
						{
							OFFSET -0.532184 27.220581 -10.096070
							CHANNELS 3 Xrotation Yrotation Zrotation
							End Site
							{
								OFFSET 0.000000 22.029861 0.000000
							}
						}
						JOINT HairD
						{
							OFFSET -10.777430 17.437408 -1.325938
							CHANNELS 3 Xrotation Yrotation Zrotation
							JOINT HairD1
							{
								OFFSET -3.290256 -11.051163 1.062188
								CHANNELS 3 Xrotation Yrotation Zrotation
								End Site
								{
									OFFSET 0.000000 11.579391 0.000000
								}
							}
						}
						JOINT HairB
						{
							OFFSET -10.777430 17.437408 1.467893
							CHANNELS 3 Xrotation Yrotation Zrotation
							JOINT HairB1
							{
								OFFSET -1.561211 -12.956329 3.590162
								CHANNELS 3 Xrotation Yrotation Zrotation
								End Site
								{
									OFFSET 0.000000 13.534882 0.000000
								}
							}
						}
						JOINT HairA
						{
							OFFSET 9.713062 17.437408 1.467893
							CHANNELS 3 Xrotation Yrotation Zrotation
							JOINT HairA1
							{
								OFFSET 1.561211 -12.956329 3.590162
								CHANNELS 3 Xrotation Yrotation Zrotation
								End Site
								{
									OFFSET 0.000000 13.534882 0.000000
								}
							}
						}
						JOINT HairC
						{
							OFFSET 9.713062 17.437408 -1.325938
							CHANNELS 3 Xrotation Yrotation Zrotation
							JOINT HairC1
							{
								OFFSET 3.290255 -11.051163 1.062188
								CHANNELS 3 Xrotation Yrotation Zrotation
								End Site
								{
									OFFSET 0.000000 11.579391 0.000000
								}
							}
						}
					}
				}
				JOINT LeftShoulder
				{
					OFFSET 5.101767 15.108002 -2.763695
					CHANNELS 3 Xrotation Yrotation Zrotation
					JOINT LeftArm
					{
						OFFSET 9.825546 2.506256 -1.597438
						CHANNELS 3 Xrotation Yrotation Zrotation
						JOINT LeftForeArm
						{
							OFFSET 21.924620 0.000000 -1.351923
							CHANNELS 3 Xrotation Yrotation Zrotation
							JOINT LeftHand
							{
								OFFSET 33.867149 -0.000336 -0.895185
								CHANNELS 3 Xrotation Yrotation Zrotation
								JOINT LeftHandThumb1
								{
									OFFSET 6.800735 -1.610214 3.624442
									CHANNELS 3 Xrotation Yrotation Zrotation
									JOINT LeftHandThumb2
									{
										OFFSET 2.133118 -1.047562 2.197256
										CHANNELS 3 Xrotation Yrotation Zrotation
										JOINT LeftHandThumb3
										{
											OFFSET 2.939781 -1.955193 1.239051
											CHANNELS 3 Xrotation Yrotation Zrotation
											End Site
											{
												OFFSET 0.000000 3.741707 0.000000
											}
										}
									}
								}
								JOINT LeftHandIndex1
								{
									OFFSET 14.184837 0.837936 3.778969
									CHANNELS 3 Xrotation Yrotation Zrotation
									JOINT LeftHandIndex2
									{
										OFFSET 3.454674 -0.747025 -0.349037
										CHANNELS 3 Xrotation Yrotation Zrotation
										JOINT LeftHandIndex3
										{
											OFFSET 2.708313 -1.000595 -0.200658
											CHANNELS 3 Xrotation Yrotation Zrotation
											End Site
											{
												OFFSET 0.000000 2.894211 0.000000
											}
										}
									}
								}
								JOINT LeftHandMiddle1
								{
									OFFSET 13.765343 0.551865 -0.058510
									CHANNELS 3 Xrotation Yrotation Zrotation
									JOINT LeftHandMiddle2
									{
										OFFSET 3.329315 -0.830414 -0.218270
										CHANNELS 3 Xrotation Yrotation Zrotation
										JOINT LeftHandMiddle3
										{
											OFFSET 3.521812 -1.082275 -0.230450
											CHANNELS 3 Xrotation Yrotation Zrotation
											End Site
											{
												OFFSET 0.000000 3.691559 0.000000
											}
										}
									}
								}
								JOINT LeftHandRing1
								{
									OFFSET 13.969360 -0.122360 -3.062001
									CHANNELS 3 Xrotation Yrotation Zrotation
									JOINT LeftHandRing2
									{
										OFFSET 3.063065 -0.760193 -0.203345
										CHANNELS 3 Xrotation Yrotation Zrotation
										JOINT LeftHandRing3
										{
											OFFSET 3.200409 -0.861923 -0.256632
											CHANNELS 3 Xrotation Yrotation Zrotation
											End Site
											{
												OFFSET 0.000000 3.324356 0.000000
											}
										}
									}
								}
								JOINT LeftHandPinky1
								{
									OFFSET 13.134644 -0.420990 -5.726565
									CHANNELS 3 Xrotation Yrotation Zrotation
									JOINT LeftHandPinky2
									{
										OFFSET 2.705887 -0.872284 -0.187246
										CHANNELS 3 Xrotation Yrotation Zrotation
										JOINT LeftHandPinky3
										{
											OFFSET 2.653091 -0.882462 -0.224701
											CHANNELS 3 Xrotation Yrotation Zrotation
											End Site
											{
												OFFSET 0.000000 2.805023 0.000000
											}
										}
									}
								}
							}
							JOINT Left_Sleeve
							{
								OFFSET 6.611050 -0.646652 0.631114
								CHANNELS 3 Xrotation Yrotation Zrotation
								End Site
								{
									OFFSET 0.000000 20.275742 0.000000
								}
							}
						}
					}
				}
				JOINT RightShoulder
				{
					OFFSET -5.731749 15.108002 -2.763695
					CHANNELS 3 Xrotation Yrotation Zrotation
					JOINT RightArm
					{
						OFFSET -9.825546 2.506256 -1.597438
						CHANNELS 3 Xrotation Yrotation Zrotation
						JOINT RightForeArm
						{
							OFFSET -21.924620 0.000000 -1.351923
							CHANNELS 3 Xrotation Yrotation Zrotation
							JOINT RightHand
							{
								OFFSET -33.867149 -0.000336 -0.895185
								CHANNELS 3 Xrotation Yrotation Zrotation
								JOINT RightHandThumb1
								{
									OFFSET -6.800735 -1.610214 3.624442
									CHANNELS 3 Xrotation Yrotation Zrotation
									JOINT RightHandThumb2
									{
										OFFSET -2.133118 -1.047562 2.197256
										CHANNELS 3 Xrotation Yrotation Zrotation
										JOINT RightHandThumb3
										{
											OFFSET -2.939781 -1.955193 1.239051
											CHANNELS 3 Xrotation Yrotation Zrotation
											End Site
											{
												OFFSET 0.000000 3.741707 0.000000
											}
										}
									}
								}
								JOINT RightHandIndex1
								{
									OFFSET -14.184837 0.837936 3.778969
									CHANNELS 3 Xrotation Yrotation Zrotation
									JOINT RightHandIndex2
									{
										OFFSET -3.454674 -0.747025 -0.349037
										CHANNELS 3 Xrotation Yrotation Zrotation
										JOINT RightHandIndex3
										{
											OFFSET -2.708313 -1.000595 -0.200658
											CHANNELS 3 Xrotation Yrotation Zrotation
											End Site
											{
												OFFSET 0.000000 2.894211 0.000000
											}
										}
									}
								}
								JOINT RightHandMiddle1
								{
									OFFSET -13.765343 0.551865 -0.058511
									CHANNELS 3 Xrotation Yrotation Zrotation
									JOINT RightHandMiddle2
									{
										OFFSET -3.329315 -0.830414 -0.218269
										CHANNELS 3 Xrotation Yrotation Zrotation
										JOINT RightHandMiddle3
										{
											OFFSET -3.521812 -1.082275 -0.230450
											CHANNELS 3 Xrotation Yrotation Zrotation
											End Site
											{
												OFFSET 0.000000 3.691559 0.000000
											}
										}
									}
								}
								JOINT RightHandRing1
								{
									OFFSET -13.969353 -0.122360 -3.062001
									CHANNELS 3 Xrotation Yrotation Zrotation
									JOINT RightHandRing2
									{
										OFFSET -3.063072 -0.760193 -0.203345
										CHANNELS 3 Xrotation Yrotation Zrotation
										JOINT RightHandRing3
										{
											OFFSET -3.200409 -0.861923 -0.256632
											CHANNELS 3 Xrotation Yrotation Zrotation
											End Site
											{
												OFFSET 0.000000 3.324356 0.000000
											}
										}
									}
								}
								JOINT RightHandPinky1
								{
									OFFSET -13.134644 -0.420990 -5.726565
									CHANNELS 3 Xrotation Yrotation Zrotation
									JOINT RightHandPinky2
									{
										OFFSET -2.705887 -0.872284 -0.187247
										CHANNELS 3 Xrotation Yrotation Zrotation
										JOINT RightHandPinky3
										{
											OFFSET -2.653091 -0.882462 -0.224700
											CHANNELS 3 Xrotation Yrotation Zrotation
											End Site
											{
												OFFSET 0.000000 2.805023 0.000000
											}
										}
									}
								}
							}
							JOINT Right_Sleeve
							{
								OFFSET -6.611050 -0.646652 0.631114
								CHANNELS 3 Xrotation Yrotation Zrotation
								End Site
								{
									OFFSET 0.000000 20.275742 0.000000
								}
							}
						}
					}
				}
				JOINT Bind_Right_JacketString
				{
					OFFSET -3.534774 11.969604 7.200667
					CHANNELS 3 Xrotation Yrotation Zrotation
					JOINT Bind_Right_JacketString1
					{
						OFFSET -0.319887 -6.102631 2.794061
						CHANNELS 3 Xrotation Yrotation Zrotation
						End Site
						{
							OFFSET 0.000000 6.719467 0.000000
						}
					}
				}
				JOINT Bind_Left_JacketString
				{
					OFFSET 2.904793 11.969604 7.200667
					CHANNELS 3 Xrotation Yrotation Zrotation
					JOINT Bind_Left_JacketString1
					{
						OFFSET 0.364847 -5.904457 3.186764
						CHANNELS 3 Xrotation Yrotation Zrotation
						End Site
						{
							OFFSET 0.000000 6.719460 0.000000
						}
					}
				}
				JOINT HairE
				{
					OFFSET 5.915198 17.612656 -11.592244
					CHANNELS 3 Xrotation Yrotation Zrotation
					JOINT HairE1
					{
						OFFSET 0.289203 -7.171906 -1.284488
						CHANNELS 3 Xrotation Yrotation Zrotation
						End Site
						{
							OFFSET 0.000000 7.291763 0.000000
						}
					}
				}
				JOINT HairF
				{
					OFFSET -0.864797 17.612656 -11.592244
					CHANNELS 3 Xrotation Yrotation Zrotation
					JOINT HairF1
					{
						OFFSET -0.000000 -14.087097 -2.127508
						CHANNELS 3 Xrotation Yrotation Zrotation
						End Site
						{
							OFFSET 0.000000 14.246841 0.000000
						}
					}
				}
				JOINT HairG
				{
					OFFSET -8.087694 17.612656 -11.592244
					CHANNELS 3 Xrotation Yrotation Zrotation
					JOINT HairG1
					{
						OFFSET -0.293551 -6.081375 -0.910136
						CHANNELS 3 Xrotation Yrotation Zrotation
						End Site
						{
							OFFSET 0.000000 6.156113 0.000000
						}
					}
				}
			}
		}
	}
	JOINT Pouch
	{
		OFFSET 0.000000 4.394547 10.847303
		CHANNELS 3 Xrotation Yrotation Zrotation
		End Site
		{
			OFFSET 0.000000 21.880577 0.000000
		}
	}
	JOINT Bag
	{
		OFFSET -13.229022 4.813034 -0.593262
		CHANNELS 3 Xrotation Yrotation Zrotation
		End Site
		{
			OFFSET 0.000000 21.880577 0.000000
		}
	}
	JOINT OccupyGuyFacialAnim_Joint
	{
		OFFSET 1.000000 -70.206352 -1.654994
		CHANNELS 3 Xrotation Yrotation Zrotation
		End Site
		{
			OFFSET 0.000000 21.880581 0.000000
		}
	}
}
MOTION
Frames: 4
Frame Time: 0.016667
-0.273869 74.719566 3.961846 89.449872 1.027922 4.259627 0.000000 0.000000 0.000000 -10.366961 2.462468 3.426913 20.126476 1.134301 -1.097399 14.841764 1.439589 -10.786553 -0.000000 -0.000000 0.000000 -0.000001 0.000000 0.000000 -23.336091 -55.696026 -21.449680 16.832212 -1.161819 0.601438 12.419768 39.158762 14.170249 -0.000002 0.000000 -0.000000 0.000000 -0.000003 -0.000001 -1.164244 0.637910 -0.608645 -2.316035 1.317258 -1.535884 -2.316052 1.317257 -1.535886 -9.789803 1.583975 -0.348993 2.502133 5.858927 -13.077555 -0.000001 0.000000 -0.000001 -0.000001 0.000000 -0.000001 -0.000000 0.000000 -0.000001 -0.000001 0.000000 -0.000001 -0.000001 0.000000 -0.000001 -0.000001 0.000000 -0.000001 -0.000001 0.000000 -0.000001 -0.000001 0.000000 -0.000001 -0.000000 0.000000 -0.000001 0.301165 -2.573215 -7.759529 3.860419 15.728713 -23.099088 -12.286909 -133.545553 -1.909024 51.618940 13.846612 42.077739 -29.155298 0.726995 -31.991247 -11.339641 -15.751449 10.273808 -0.000001 0.000001 -0.000002 -5.458432 -5.414479 -42.228048 -11.806801 2.446662 -33.591430 0.000000 0.000000 -0.000000 -6.567989 -3.152203 -42.547680 -9.317616 -1.030305 -36.485211 0.000000 0.000000 0.000000 -5.885924 2.417885 -36.322451 -9.913589 -4.011975 -60.979191 0.000002 -0.000000 -0.000002 -5.757962 -3.596011 -46.769854 -6.542841 -10.180923 -36.692712 -0.000001 0.000000 0.000001 -0.000003 -0.000001 0.000001 0.363593 1.823641 6.234413 -11.723990 -28.539580 17.317689 -0.034194 137.681806 -0.043966 52.743472 -13.647562 -29.925180 -15.358275 -10.687305 -19.852068 -8.926161 6.839304 -5.401639 -0.000000 0.000001 0.000000 -12.158668 7.732000 12.096407 -13.573835 0.761758 40.388657 -0.000001 -0.000000 -0.000001 -3.922257 2.612096 -1.090528 -13.104774 0.238916 56.118149 -0.000001 -0.000000 -0.000001 -3.429907 -3.466671 -4.497716 -15.914670 10.182210 76.396171 0.000001 0.000000 0.000000 2.067681 0.904648 2.847270 -12.610764 13.329882 53.765668 0.000001 -0.000001 -0.000000 0.000001 -0.000001 -0.000001 -0.000000 0.000000 -0.000000 -0.000000 0.000000 -0.000000 -0.000000 0.000000 -0.000000 -0.000000 0.000000 0.000000 -0.000000 0.000000 0.000000 -0.000000 -0.000000 -0.000000 -0.000000 0.000000 -0.000000 -0.000000 0.000000 -0.000000 -0.000000 0.000000 0.000000 -0.000000 -0.000000 -0.000000 0.000000 0.000000 0.000000 0.000000 0.000000 0.000000 0.000000 0.000000 0.000000 
-0.273200 74.729782 3.958024 89.441156 1.020504 4.270090 0.000000 -0.000000 -0.000000 -10.354036 2.497325 3.434770 20.069693 1.102575 -1.094481 14.884927 1.395746 -11.025853 0.000001 -0.000000 0.000000 -0.000001 -0.000000 -0.000000 -23.232472 -55.532412 -21.334043 16.827027 -1.151010 0.601581 12.270805 39.042249 14.330758 -0.000000 -0.000000 0.000002 -0.000001 -0.000002 -0.000000 -1.161332 0.645970 -0.605304 -2.310166 1.333088 -1.525447 -2.310151 1.333087 -1.525446 -9.900961 1.586346 -0.318188 2.520817 5.884361 -13.149395 -0.000001 0.000001 0.000000 -0.000001 0.000001 0.000000 -0.000001 0.000001 -0.000001 -0.000001 0.000001 -0.000000 -0.000001 0.000001 -0.000000 -0.000001 0.000001 -0.000000 -0.000001 0.000001 -0.000000 -0.000001 0.000001 0.000000 -0.000001 0.000001 -0.000001 0.299690 -2.565764 -7.772927 3.825276 15.654993 -23.117557 -12.274101 -133.468836 -1.905931 51.616382 13.817516 42.085877 -29.184541 0.681821 -32.017161 -11.327567 -15.722197 10.268994 0.000003 -0.000001 -0.000000 -5.437877 -5.398500 -42.149948 -11.780123 2.444376 -33.466148 -0.000002 -0.000000 0.000000 -6.546087 -3.140584 -42.530888 -9.299006 -1.027416 -36.395220 0.000001 0.000000 -0.000000 -5.965077 2.435666 -36.193149 -9.906239 -4.009630 -60.924659 -0.000001 0.000000 -0.000000 -5.824378 -3.615322 -46.807338 -6.535156 -10.174881 -36.645147 -0.000002 0.000001 0.000000 -0.000000 0.000001 -0.000000 0.364487 1.899047 6.252966 -11.890570 -28.670170 17.460093 -0.034389 137.789067 -0.043586 52.873802 -13.572397 -29.770257 -15.438803 -10.455829 -19.763902 -8.943503 6.878301 -5.404978 -0.000000 -0.000000 0.000000 -12.551655 8.166390 13.473294 -13.678533 0.782062 41.373273 0.000001 0.000000 -0.000001 -4.366754 3.222219 1.630236 -13.598671 0.233786 58.330478 -0.000002 -0.000000 0.000000 -3.672911 -3.202229 -2.608368 -15.922890 10.180942 76.429830 0.000001 -0.000000 0.000000 2.106683 0.778038 3.289188 -12.407317 13.304171 53.086228 -0.000000 -0.000000 -0.000001 0.000001 -0.000002 -0.000000 0.000000 0.000000 -0.000000 0.000000 0.000000 -0.000000 0.000000 0.000000 -0.000000 0.000000 0.000000 -0.000000 0.000000 0.000000 -0.000000 0.000000 0.000000 -0.000000 0.000000 0.000000 -0.000000 0.000000 0.000000 -0.000000 0.000000 0.000000 -0.000000 0.000000 0.000000 -0.000000 0.000000 -0.000000 -0.000000 0.000000 -0.000000 -0.000000 0.000000 -0.000000 -0.000000 
-0.273729 74.742622 3.955111 89.426956 1.022056 4.283557 0.000000 -0.000000 -0.000000 -10.343025 2.515862 3.437357 20.021069 1.073853 -1.091952 14.920646 1.349403 -11.235855 0.000001 0.000001 0.000000 0.000000 -0.000000 0.000000 -23.116330 -55.355924 -21.211373 16.818634 -1.139786 0.601425 12.112608 38.904997 14.499038 -0.000000 -0.000000 -0.000001 -0.000001 -0.000001 -0.000000 -1.157161 0.651886 -0.602868 -2.301897 1.344655 -1.517199 -2.301875 1.344653 -1.517198 -10.017173 1.590680 -0.290128 2.538480 5.913941 -13.218381 -0.000000 -0.000000 0.000001 -0.000000 -0.000000 0.000001 -0.000000 0.000001 -0.000001 -0.000000 -0.000000 0.000000 -0.000000 -0.000000 0.000000 -0.000000 -0.000000 0.000000 -0.000000 -0.000000 0.000000 -0.000000 -0.000000 0.000001 -0.000000 0.000001 -0.000001 0.300359 -2.517161 -7.770203 3.775515 15.500947 -23.226827 -12.305901 -133.362312 -1.918950 51.658374 13.699795 42.063843 -29.204861 0.651980 -32.037863 -11.316797 -15.696161 10.264714 -0.000001 0.000000 -0.000001 -5.420711 -5.384944 -42.081670 -11.755569 2.442363 -33.350683 -0.000000 -0.000000 -0.000000 -6.517362 -3.126291 -42.505603 -9.280328 -1.024474 -36.304887 -0.000001 0.000000 -0.000000 -6.055424 2.453343 -36.058922 -9.898884 -4.007245 -60.870140 -0.000000 0.000000 0.000002 -5.884624 -3.634330 -46.864571 -6.527875 -10.169160 -36.600286 -0.000001 0.000000 -0.000000 -0.000000 -0.000002 -0.000000 0.364659 1.983890 6.282152 -12.090652 -28.812689 17.634220 -0.034546 137.894635 -0.043139 53.027413 -13.463640 -29.598707 -15.524416 -10.212048 -19.668626 -8.963764 6.923875 -5.408967 -0.000000 -0.000001 -0.000000 -12.984103 8.633503 14.952942 -13.781790 0.803618 42.394643 -0.000004 -0.000001 -0.000000 -4.865525 3.855805 4.513918 -14.125520 0.207455 60.692856 0.000001 -0.000000 -0.000000 -3.944238 -2.925153 -0.618564 -15.930397 10.179797 76.460430 -0.000001 -0.000000 -0.000000 2.149189 0.650267 3.716894 -12.194011 13.275330 52.377285 0.000001 -0.000001 0.000001 0.000001 0.000000 -0.000000 0.000001 -0.000001 -0.000000 0.000001 -0.000001 -0.000000 0.000001 -0.000001 -0.000000 0.000001 -0.000001 -0.000000 0.000001 -0.000001 -0.000000 0.000000 -0.000000 0.000000 0.000001 -0.000001 -0.000000 0.000001 -0.000001 -0.000000 0.000001 -0.000001 -0.000000 0.000000 -0.000000 -0.000000 0.000000 -0.000000 -0.000000 0.000000 -0.000000 -0.000000 0.000000 -0.000000 -0.000000 
-0.277333 74.762482 3.954616 89.397122 1.044490 4.303939 -0.000000 -0.000000 0.000000 -10.336329 2.498334 3.427118 19.993656 1.052765 -1.090502 14.942548 1.308426 -11.367547 -0.000001 -0.000001 0.000000 -0.000000 0.000000 -0.000001 -22.968214 -55.149225 -21.070994 16.803845 -1.127619 0.600702 11.932008 38.723324 14.685175 0.000000 -0.000001 -0.000001 -0.000000 -0.000001 -0.000000 -1.148498 0.653660 -0.602412 -2.284590 1.347991 -1.513990 -2.284570 1.347988 -1.513991 -10.150568 1.599589 -0.263856 2.547896 5.959471 -13.282924 -0.000001 0.000000 0.000001 -0.000001 0.000000 0.000001 0.000000 -0.000001 0.000001 -0.000001 0.000000 0.000001 -0.000001 0.000000 0.000001 -0.000001 0.000000 0.000001 -0.000001 0.000000 0.000001 -0.000001 0.000000 0.000001 0.000000 -0.000001 0.000001 0.300468 -2.491776 -7.774089 3.720229 15.363561 -23.295800 -12.311511 -133.239000 -1.920188 51.686739 13.619279 42.089794 -29.206073 0.650748 -32.038717 -11.306877 -15.672079 10.260737 -0.000000 0.000000 0.000003 -5.414022 -5.378653 -42.051747 -11.735945 2.440862 -33.257304 -0.000000 0.000000 -0.000000 -6.468681 -3.105081 -42.470174 -9.260269 -1.021307 -36.207922 0.000000 -0.000000 -0.000000 -6.171920 2.470477 -35.919104 -9.890992 -4.004723 -60.811613 -0.000001 -0.000000 -0.000000 -5.931993 -3.653723 -46.977402 -6.522680 -10.165096 -36.568420 -0.000001 0.000000 -0.000000 -0.000000 0.000001 -0.000000 0.363544 2.096200 6.336682 -12.371729 -29.000608 17.880558 -0.034870 138.006212 -0.042441 53.239870 -13.281898 -29.402906 -15.628864 -9.919729 -19.550701 -8.995675 6.995467 -5.415491 -0.000000 -0.000001 -0.000000 -13.496748 9.162096 16.580889 -13.849299 0.835461 43.322958 0.000001 0.000000 0.000000 -5.451095 4.530762 7.558540 -14.678486 0.156826 63.178348 -0.000000 -0.000000 0.000000 -4.267565 -2.625781 1.446399 -15.931025 10.179711 76.463046 -0.000002 -0.000001 -0.000000 2.186629 0.545809 4.120771 -11.964775 13.240265 51.609459 0.000002 0.000000 0.000000 0.000001 -0.000001 -0.000000 0.000000 -0.000000 -0.000000 0.000000 -0.000000 -0.000000 0.000000 -0.000000 -0.000000 0.000000 -0.000000 -0.000000 0.000000 -0.000000 -0.000000 0.000000 -0.000001 -0.000000 0.000000 -0.000000 -0.000000 0.000000 -0.000000 -0.000000 0.000000 -0.000000 -0.000000 0.000000 -0.000001 -0.000000 -0.000000 -0.000000 0.000000 -0.000000 -0.000000 0.000000 -0.000000 -0.000000 0.000000 
